<svg id="圖層_1" data-name="圖層 1" xmlns="http://www.w3.org/2000/svg" viewBox="0 0 129 129"><defs><style>.cls-1{fill:#be3c3c;}.cls-2{fill:#fff;}</style></defs><title>bc</title><circle class="cls-1" cx="64.5" cy="64.5" r="64.5"/><path class="cls-2" d="M577.18,1196.77c-4.45,3.93-9.19,3.44-14,2.22-5.61-1.44-11.27-2.75-16.71-4.68a12.73,12.73,0,0,1-5.56-4.75c-1-1.54-1.9-4.79-1.09-5.65,1.26-1.35,4-1.94,6.09-1.79,4.15.31,8.24,1.32,12.81,2.12-1.88-4.08-3.6-6.92-4.5-10-1.12-3.84.62-6,4.54-5.56,3.43.34,7.6.48,9.92,2.47,2,1.74,2.11,5.92,2.65,9.09.26,1.55-.39,3.26-.75,5.73,9.38,0,18.56.23,27.72-.06s18.57-1.08,27.85-1.71c3.1-.2,6.42.37,6.44,3.78,0,3.65-3.73,3.51-6.53,3.73-8.07.63-16.16,1.08-24.22,1.88-6.5.64-6.49.82-7.06,9.27,7.67-1,15.13-1.91,22.57-2.89,1.31-.17,2.81-1.12,3.83-.72,1.68.65,3,2.11,4.53,3.22-1.47,1.09-2.84,2.89-4.41,3.1-2.82.37-5.32.41-7.66,2.65-1.29,1.24-4,1.14-6.08,1.38-3.29.37-6.62.38-9.9.79-2.84.36-3.64,2.31-3.59,5,.06,3,2.07,3,4.07,3.16,4.31.28,8.62.49,12.93.72,1.49.07,3.24-.36,4.41.28,1.39.76,2.28,2.43,3.39,3.71-1.32,1.08-2.63,2.18-4,3.22a1,1,0,0,1-1,0c-6.29-4.71-12,.84-18,1a5.15,5.15,0,0,0-2.34.71c-3.24,1.91-6.44,3.9-9.93,6-.1-.25.2.5.53,1.23s.72,1.48,1.34,2.76c8.27,0,16.7.06,25.12,0,1.74,0,3.47-.73,5.22-1.06,5-.92,9.91-2.25,14.92-2.55,2.5-.15,5.15,1.52,7.66,2.55.56.23,1.27,1.61,1.09,1.85a3.89,3.89,0,0,1-2.25,1.56c-4.12.5-8.27.81-12.41,1.15-1.31.11-2.62.13-3.85.19-1.68,5.22-3.76,6.86-9.35,7-4.66.09-9.32-.27-14-.16a83.71,83.71,0,0,0-8.83,1.23c1.45,1.88,2.06,3.37,3.15,4,6,3.22,11.82,7.63,18.23,8.86,6,1.15,12.66-1.21,19.05-1.9a44.23,44.23,0,0,1,5.75.09c-.2,2.12.29,4.69-.73,6.29-2.87,4.47-6.42,8.48-9.57,12.77-3,4-7,5.84-11.72,4.64a15.81,15.81,0,0,1-11.54-10.7c-1.38-3.94-3.35-7.68-4.48-10.21-7.5,1.46-13.45,2.88-19.48,3.71-6.39.87-12.31,2.41-17.2,6.94-1.1,1-2.88,1.3-5,2.2.13-4.79,3.28-6,5.93-7.9,5.69-4,11.27-8.11,16.75-12.36.82-.64.88-2.27,1.29-3.44a19.38,19.38,0,0,0-3.6-.85c-7.31-.28-14.62-.55-21.93-.62a24.36,24.36,0,0,0-7.12.89c-5.31,1.59-12.42-2.71-13.34-8.23-.49-3,.62-4.67,3.64-4.48a144.2,144.2,0,0,1,16.37,1.59c8.74,1.6,12.81,1.54,21.66-1.63l.51-7.51c-2.26,0-4.67-.06-7.08,0-1,0-1.94.56-2.92.62-3.3.18-6.94.74-8.84-2.81-1-1.83,4.44-8.18,7.39-8.34,3.42-.19,6.88.51,10.33.72,1.37.08,3.91,0,3.94-.23a27.47,27.47,0,0,0,.18-7.68c-.09-.62-2.38-1.41-3.58-1.3a43.53,43.53,0,0,0-8.79,1.63,13.78,13.78,0,0,1-12.33-2,6.58,6.58,0,0,1-2.59-5.11c.14-1.13,2.89-2.57,4.59-2.75,2.76-.31,5.62.41,8.44.51a82.73,82.73,0,0,0,8.48-.11C579.07,1204.78,579.76,1203.55,577.18,1196.77Z" transform="translate(-521.91 -1160.05)"/><path class="cls-2" d="M616.18,1165.16c2.41-1.35,6-1.92,8.26,1,1.53,2,1.65,5.43,1.68,8.22,0,1.77-10,6.95-11.62,6.14a3.5,3.5,0,0,1-1.39-3c.29-1.57,1.62-2.92,2-4.5A73,73,0,0,0,616.18,1165.16Z" transform="translate(-521.91 -1160.05)"/></svg>